/vscmnt/brussel_pixiu_data/_data_brussel/112/vsc11236/PredSimResults/SUBJ11_Falisse2022/weightedWalking/worker_04.mot
version=1
nRows=4
nColumns=124
inDegrees=yes
endheader
                time	         pelvis_tilt	         pelvis_list	     pelvis_rotation	           pelvis_tx	           pelvis_ty	           pelvis_tz	       hip_flexion_r	     hip_adduction_r	      hip_rotation_r	        knee_angle_r	       ankle_angle_r	    subtalar_angle_r	         mtp_angle_r	       hip_flexion_l	     hip_adduction_l	      hip_rotation_l	        knee_angle_l	       ankle_angle_l	    subtalar_angle_l	         mtp_angle_l	    lumbar_extension	      lumbar_bending	     lumbar_rotation	          arm_flex_r	           arm_add_r	           arm_rot_r	        elbow_flex_r	          arm_flex_l	           arm_add_l	           arm_rot_l	        elbow_flex_l	glut_med1_r/activation	glut_med2_r/activation	glut_med3_r/activation	glut_min1_r/activation	glut_min2_r/activation	glut_min3_r/activation	semimem_r/activation	semiten_r/activation	bifemlh_r/activation	bifemsh_r/activation	    sar_r/activation	add_long_r/activation	add_brev_r/activation	add_mag1_r/activation	add_mag2_r/activation	add_mag3_r/activation	    tfl_r/activation	   pect_r/activation	   grac_r/activation	glut_max1_r/activation	glut_max2_r/activation	glut_max3_r/activation	iliacus_r/activation	  psoas_r/activation	quad_fem_r/activation	    gem_r/activation	   peri_r/activation	rect_fem_r/activation	vas_med_r/activation	vas_int_r/activation	vas_lat_r/activation	med_gas_r/activation	lat_gas_r/activation	 soleus_r/activation	tib_post_r/activation	flex_dig_r/activation	flex_hal_r/activation	tib_ant_r/activation	per_brev_r/activation	per_long_r/activation	per_tert_r/activation	ext_dig_r/activation	ext_hal_r/activation	glut_med1_l/activation	glut_med2_l/activation	glut_med3_l/activation	glut_min1_l/activation	glut_min2_l/activation	glut_min3_l/activation	semimem_l/activation	semiten_l/activation	bifemlh_l/activation	bifemsh_l/activation	    sar_l/activation	add_long_l/activation	add_brev_l/activation	add_mag1_l/activation	add_mag2_l/activation	add_mag3_l/activation	    tfl_l/activation	   pect_l/activation	   grac_l/activation	glut_max1_l/activation	glut_max2_l/activation	glut_max3_l/activation	iliacus_l/activation	  psoas_l/activation	quad_fem_l/activation	    gem_l/activation	   peri_l/activation	rect_fem_l/activation	vas_med_l/activation	vas_int_l/activation	vas_lat_l/activation	med_gas_l/activation	lat_gas_l/activation	 soleus_l/activation	tib_post_l/activation	flex_dig_l/activation	flex_hal_l/activation	tib_ant_l/activation	per_brev_l/activation	per_long_l/activation	per_tert_l/activation	ext_dig_l/activation	ext_hal_l/activation	 ercspn_r/activation	 ercspn_l/activation	 intobl_r/activation	 intobl_l/activation	 extobl_r/activation	 extobl_l/activation	
          1.36217176	         -8.08411756	         -4.08679228	          2.37191545	          1.37579348	          0.94229156	         -0.00464625	         31.31411950	          5.05761053	          0.63391457	         -3.11518530	          7.49498696	         -7.64233116	          0.18484686	        -10.53560003	         -1.64511273	          8.44285713	         -5.53561691	          8.83899150	         -5.85896373	         27.57742210	          0.05563552	          2.70723590	         -2.45040819	        -10.33534885	        -13.44995378	         19.34613771	         24.19754879	          7.23374547	        -13.46257057	         19.15521825	         69.22535352	          0.03079907	          0.01000108	          0.01000008	          0.05116655	          0.01227041	          0.01000116	          0.09970968	          0.01227058	          0.01227025	          0.01000010	          0.01426782	          0.03413719	          0.14288698	          0.15167075	          0.11843218	          0.05851859	          0.01000020	          0.01848647	          0.05998684	          0.01000031	          0.01000007	          0.05895027	          0.02294590	          0.02179558	          0.11699627	          0.11761430	          0.01000032	          0.01847430	          0.10590557	          0.10619486	          0.08261535	          0.01000001	          0.01000004	          0.01000000	          0.01227711	          0.01030509	          0.01236700	          0.39325213	          0.14052912	          0.10728315	          0.21299976	          0.40087213	          0.06306524	          0.18410891	          0.15029461	          0.14922534	          0.14096694	          0.18102017	          0.17407523	          0.01244105	          0.01000014	          0.01000014	          0.05556131	          0.09601317	          0.01224616	          0.01000036	          0.01000052	          0.01000091	          0.01000022	          0.19328397	          0.01001442	          0.02267780	          0.02268661	          0.02083330	          0.01224357	          0.30330672	          0.41368747	          0.04336424	          0.03424371	          0.16448983	          0.02781419	          0.01000027	          0.01000026	          0.01000026	          0.34020510	          0.41802544	          0.32691047	          0.27192764	          0.27157684	          0.26012963	          0.01847413	          0.01000012	          0.01000008	          0.01000017	          0.01002574	          0.01226597	          0.05068214	          0.01767321	          0.03189095	          0.01000008	          0.06168955	          0.01000001	
          1.37579348	         -8.08219648	         -4.28625291	          2.59509233	          1.39288838	          0.94092392	         -0.00435665	         30.39218734	          5.37723401	          0.99148617	         -2.90575925	          6.40034911	         -8.18353826	          0.19577968	        -10.43971371	         -1.82179180	          7.93026110	         -7.56750226	          8.78120116	         -5.35976251	         29.47164204	          0.18130476	          3.09549405	         -2.52801192	        -11.30544940	        -13.45466913	         19.29973087	         23.12695487	          6.85174243	        -13.47381303	         19.09607853	         71.46364540	          0.02510056	          0.01000004	          0.01000013	          0.04169960	          0.01000016	          0.01000008	          0.08126111	          0.01000031	          0.01000007	          0.01000004	          0.01162801	          0.02782107	          0.11644963	          0.12360826	          0.09651955	          0.04769132	          0.01000039	          0.01506722	          0.04888847	          0.01000024	          0.04668644	          0.04804313	          0.01870039	          0.01776292	          0.12020751	          0.09585298	          0.01000011	          0.01505616	          0.08631065	          0.08654641	          0.06732966	          0.01727514	          0.01847381	          0.01505602	          0.01000557	          0.01505576	          0.01505595	          0.33666670	          0.15303772	          0.10243538	          0.17359003	          0.41858468	          0.05139673	          0.15004454	          0.12248664	          0.12161521	          0.11488490	          0.14752730	          0.14186731	          0.01013973	          0.01000092	          0.01000113	          0.04528119	          0.07824859	          0.01377988	          0.01000037	          0.01000085	          0.01000187	          0.01000052	          0.15752203	          0.01000166	          0.01848211	          0.01848933	          0.01697881	          0.01000357	          0.24718806	          0.35266252	          0.03534088	          0.02790793	          0.13405542	          0.02266796	          0.01000018	          0.01000018	          0.01000017	          0.27803325	          0.36590459	          0.32129602	          0.26125157	          0.26015571	          0.25569611	          0.01505599	          0.01000008	          0.01000005	          0.01000010	          0.01000002	          0.01000015	          0.04130478	          0.02904301	          0.02599040	          0.01000045	          0.05027556	          0.01000003	
          1.38941519	         -8.07502067	         -4.47535921	          2.80266414	          1.41021000	          0.93969120	         -0.00404372	         29.38485832	          5.65944478	          1.35891418	         -2.80763817	          5.35222826	         -8.72365858	          0.17685542	        -10.22483313	         -1.99248793	          7.39519195	         -9.81921978	          8.59503282	         -4.87761996	         31.34248789	          0.31850044	          3.47948870	         -2.59531269	        -12.28730845	        -13.46494552	         19.26203102	         22.19669996	          6.39377564	        -13.48281972	         19.03587738	         73.60565550	          0.12392649	          0.14227764	          0.17150088	          0.04100469	          0.12108846	          0.11627465	          0.06622596	          0.04521743	          0.02523801	          0.05138229	          0.01227147	          0.02267356	          0.09490377	          0.10073793	          0.07866126	          0.03886736	          0.01000533	          0.01228009	          0.05608254	          0.07835354	          0.03805341	          0.03915407	          0.01524040	          0.01447640	          0.09796682	          0.07811808	          0.14116699	          0.01227044	          0.07034121	          0.07053336	          0.05487214	          0.01407884	          0.01505574	          0.01227031	          0.01227034	          0.01227019	          0.01227032	          0.48875923	          0.19452190	          0.12088877	          0.32046097	          0.49361642	          0.19150087	          0.16220101	          0.09982380	          0.09911359	          0.18247495	          0.12023140	          0.11561860	          0.01010725	          0.01000025	          0.01000014	          0.03690313	          0.06377084	          0.02278336	          0.01000061	          0.01000046	          0.01000091	          0.01000032	          0.12837697	          0.03850316	          0.01506262	          0.01506857	          0.01383745	          0.01000038	          0.20145259	          0.29080125	          0.02880201	          0.02274437	          0.10925208	          0.01847391	          0.01000026	          0.01000025	          0.01000025	          0.22659068	          0.29820384	          0.30012951	          0.25276824	          0.25668304	          0.24808616	          0.01227029	          0.01000027	          0.01000732	          0.01000012	          0.01000003	          0.01000016	          0.05904595	          0.03309833	          0.02118162	          0.01000000	          0.04097342	          0.01000001	
          1.40303691	         -8.06516613	         -4.64516215	          2.99559412	          1.42752943	          0.93873353	         -0.00368509	         28.32230492	          5.92359988	          1.71220696	         -2.61393718	          4.27790309	         -9.27497899	          0.15807745	         -9.85463836	         -2.15585557	          6.85633030	        -12.31450031	          8.25348270	         -4.39847703	         33.12442059	          0.45196663	          3.84587597	         -2.65268511	        -13.23242917	        -13.46980757	         19.24225301	         21.38453257	          5.90671338	        -13.49067289	         18.99023249	         75.58482804	          0.19228848	          0.21918638	          0.25876484	          0.07916687	          0.09870752	          0.17481417	          0.05612448	          0.05938790	          0.04110528	          0.04187540	          0.01000108	          0.01847845	          0.07734441	          0.08209926	          0.06410773	          0.04958051	          0.01000021	          0.01001006	          0.04573727	          0.13208317	          0.07807134	          0.04656356	          0.01242058	          0.01179795	          0.07984460	          0.06366453	          0.17063920	          0.01000015	          0.05732655	          0.05748315	          0.04471962	          0.01147394	          0.01227009	          0.01000002	          0.01000006	          0.01000016	          0.01000017	          0.56479812	          0.20320702	          0.11052411	          0.44043934	          0.53103296	          0.23549414	          0.13219020	          0.08135410	          0.08077530	          0.15158346	          0.09798586	          0.09422651	          0.01254358	          0.01000067	          0.01000024	          0.03007521	          0.05197181	          0.01856848	          0.01591505	          0.01000120	          0.01000389	          0.03949716	          0.10462433	          0.03154276	          0.01227581	          0.01228076	          0.01127735	          0.01000031	          0.16417923	          0.23699635	          0.02347298	          0.01853619	          0.08903793	          0.01505583	          0.01000102	          0.01000093	          0.01000074	          0.18466617	          0.24302926	          0.26733980	          0.24182587	          0.24980823	          0.23527588	          0.01000002	          0.01505576	          0.01505593	          0.01000021	          0.01000004	          0.01000016	          0.07164693	          0.05740110	          0.01726254	          0.01000000	          0.03339240	          0.01000001	
